<svg xmlns="http://www.w3.org/2000/svg" xmlns:xlink="http://www.w3.org/1999/xlink" width="300" zoomAndPan="magnify" viewBox="0 0 224.87999 56.249996" height="75" preserveAspectRatio="xMidYMid meet" version="1.0"><defs><g/></defs><path fill="#68de68" d="M 31.234375 10.417969 L 33.226562 8.429688 C 37.136719 4.519531 43.5 4.421875 47.433594 8.308594 C 50.570312 11.410156 51.222656 16.082031 49.390625 19.839844 C 48.488281 21.6875 48.855469 23.902344 50.308594 25.355469 C 55.789062 19.875 55.777344 10.957031 50.28125 5.488281 C 44.78125 0.0195312 35.855469 0.128906 30.375 5.613281 L 11.394531 24.589844 L 9.835938 23.03125 C 5.859375 19.050781 5.832031 12.554688 9.878906 8.648438 C 13.015625 5.625 17.648438 5.046875 21.355469 6.914062 C 23.101562 7.796875 25.210938 7.484375 26.59375 6.101562 L 26.644531 6.054688 C 26.707031 5.992188 26.707031 5.890625 26.640625 5.824219 C 21.222656 0.53125 12.542969 0.507812 7.097656 5.765625 C 1.4375 11.230469 1.457031 20.320312 7.019531 25.882812 L 25.992188 44.855469 L 23.976562 46.871094 C 20.066406 50.78125 13.703125 50.878906 9.769531 46.992188 C 6.632812 43.890625 5.980469 39.21875 7.8125 35.460938 C 8.714844 33.613281 8.347656 31.398438 6.894531 29.945312 C 1.414062 35.421875 1.421875 44.34375 6.921875 49.808594 C 12.417969 55.277344 21.34375 55.167969 26.828125 49.6875 L 45.832031 30.683594 L 47.398438 32.25 C 51.308594 36.160156 51.402344 42.523438 47.515625 46.457031 C 44.414062 49.59375 39.742188 50.246094 35.988281 48.414062 C 34.140625 47.511719 31.921875 47.878906 30.46875 49.332031 C 35.949219 54.8125 44.871094 54.800781 50.335938 49.304688 C 55.804688 43.804688 55.695312 34.878906 50.214844 29.394531 Z M 28.824219 42.019531 L 14.230469 27.421875 L 28.402344 13.253906 L 42.996094 27.847656 Z M 28.824219 42.019531 " fill-opacity="1" fill-rule="nonzero"/><g fill="#000000" fill-opacity="1"><g transform="translate(63.735734, 33.152209)"><g><path d="M 9.921875 0.375 C 8.648438 0.375 7.46875 0.148438 6.375 -0.296875 C 5.289062 -0.753906 4.34375 -1.390625 3.53125 -2.203125 C 2.726562 -3.023438 2.101562 -3.984375 1.65625 -5.078125 C 1.207031 -6.179688 0.984375 -7.363281 0.984375 -8.625 C 0.984375 -9.914062 1.207031 -11.113281 1.65625 -12.21875 C 2.101562 -13.320312 2.726562 -14.28125 3.53125 -15.09375 C 4.34375 -15.914062 5.289062 -16.550781 6.375 -17 C 7.46875 -17.457031 8.648438 -17.6875 9.921875 -17.6875 C 11.316406 -17.6875 12.597656 -17.394531 13.765625 -16.8125 C 14.941406 -16.238281 15.925781 -15.429688 16.71875 -14.390625 C 17.507812 -13.359375 18.035156 -12.15625 18.296875 -10.78125 L 14.546875 -10.78125 C 14.203125 -11.800781 13.613281 -12.613281 12.78125 -13.21875 C 11.957031 -13.820312 11.003906 -14.125 9.921875 -14.125 C 8.941406 -14.125 8.066406 -13.878906 7.296875 -13.390625 C 6.523438 -12.898438 5.910156 -12.242188 5.453125 -11.421875 C 5.003906 -10.597656 4.78125 -9.664062 4.78125 -8.625 C 4.78125 -7.59375 5.003906 -6.664062 5.453125 -5.84375 C 5.910156 -5.03125 6.523438 -4.382812 7.296875 -3.90625 C 8.066406 -3.425781 8.941406 -3.1875 9.921875 -3.1875 C 11.054688 -3.1875 12.035156 -3.507812 12.859375 -4.15625 C 13.679688 -4.800781 14.25 -5.675781 14.5625 -6.78125 L 18.359375 -6.78125 C 18.085938 -5.34375 17.5625 -4.085938 16.78125 -3.015625 C 16 -1.941406 15.019531 -1.109375 13.84375 -0.515625 C 12.664062 0.078125 11.359375 0.375 9.921875 0.375 Z M 9.921875 0.375 "/></g></g></g><g fill="#000000" fill-opacity="1"><g transform="translate(82.810612, 33.152209)"><g><path d="M 9.375 -13.671875 C 10.894531 -13.671875 12.085938 -13.164062 12.953125 -12.15625 C 13.828125 -11.15625 14.265625 -9.804688 14.265625 -8.109375 L 14.265625 0 L 10.65625 0 L 10.65625 -7.515625 C 10.65625 -8.503906 10.472656 -9.25 10.109375 -9.75 C 9.753906 -10.257812 9.160156 -10.515625 8.328125 -10.515625 C 7.441406 -10.515625 6.722656 -10.203125 6.171875 -9.578125 C 5.617188 -8.960938 5.34375 -8.113281 5.34375 -7.03125 L 5.34375 0 L 1.734375 0 L 1.734375 -18.171875 L 5.34375 -18.171875 L 5.34375 -12.125 C 5.851562 -12.601562 6.453125 -12.976562 7.140625 -13.25 C 7.835938 -13.53125 8.582031 -13.671875 9.375 -13.671875 Z M 9.375 -13.671875 "/></g></g></g><g fill="#000000" fill-opacity="1"><g transform="translate(98.669232, 33.152209)"><g><path d="M 12.640625 -13.375 L 15.328125 -13.375 L 15.328125 -0.03125 L 12.484375 -0.03125 L 12.1875 -1.21875 C 11.613281 -0.71875 10.957031 -0.328125 10.21875 -0.046875 C 9.488281 0.234375 8.703125 0.375 7.859375 0.375 C 6.523438 0.375 5.332031 0.0664062 4.28125 -0.546875 C 3.226562 -1.171875 2.394531 -2.015625 1.78125 -3.078125 C 1.164062 -4.140625 0.859375 -5.347656 0.859375 -6.703125 C 0.859375 -8.035156 1.164062 -9.234375 1.78125 -10.296875 C 2.394531 -11.359375 3.226562 -12.195312 4.28125 -12.8125 C 5.332031 -13.425781 6.523438 -13.734375 7.859375 -13.734375 C 8.722656 -13.734375 9.523438 -13.585938 10.265625 -13.296875 C 11.003906 -13.003906 11.664062 -12.601562 12.25 -12.09375 Z M 8.15625 -3.046875 C 8.851562 -3.046875 9.476562 -3.203125 10.03125 -3.515625 C 10.582031 -3.828125 11.015625 -4.257812 11.328125 -4.8125 C 11.640625 -5.363281 11.796875 -5.992188 11.796875 -6.703125 C 11.796875 -7.390625 11.640625 -8.007812 11.328125 -8.5625 C 11.015625 -9.125 10.582031 -9.5625 10.03125 -9.875 C 9.476562 -10.195312 8.851562 -10.359375 8.15625 -10.359375 C 7.445312 -10.359375 6.820312 -10.195312 6.28125 -9.875 C 5.738281 -9.5625 5.3125 -9.125 5 -8.5625 C 4.6875 -8.007812 4.53125 -7.390625 4.53125 -6.703125 C 4.53125 -5.992188 4.6875 -5.363281 5 -4.8125 C 5.3125 -4.269531 5.738281 -3.835938 6.28125 -3.515625 C 6.820312 -3.203125 7.445312 -3.046875 8.15625 -3.046875 Z M 8.15625 -3.046875 "/></g></g></g><g fill="#000000" fill-opacity="1"><g transform="translate(115.740134, 33.152209)"><g><path d="M 1.734375 -15.140625 L 1.734375 -18.5 L 5.34375 -18.5 L 5.34375 -15.140625 Z M 1.734375 0 L 1.734375 -13.359375 L 5.34375 -13.359375 L 5.34375 0 Z M 1.734375 0 "/></g></g></g><g fill="#000000" fill-opacity="1"><g transform="translate(122.815894, 33.152209)"><g><path d="M 9.34375 -13.671875 C 10.863281 -13.671875 12.0625 -13.164062 12.9375 -12.15625 C 13.820312 -11.144531 14.265625 -9.789062 14.265625 -8.09375 L 14.265625 0 L 10.65625 0 L 10.65625 -7.515625 C 10.65625 -9.515625 9.878906 -10.515625 8.328125 -10.515625 C 7.410156 -10.515625 6.679688 -10.195312 6.140625 -9.5625 C 5.609375 -8.9375 5.34375 -8.09375 5.34375 -7.03125 L 5.34375 0 L 1.734375 0 L 1.734375 -13.359375 L 4.203125 -13.359375 L 4.921875 -11.703125 C 5.421875 -12.304688 6.054688 -12.785156 6.828125 -13.140625 C 7.597656 -13.492188 8.4375 -13.671875 9.34375 -13.671875 Z M 9.34375 -13.671875 "/></g></g></g><g fill="#000000" fill-opacity="1"><g transform="translate(138.674514, 33.152209)"><g><path d="M 13.921875 -17.3125 L 13.921875 -13.828125 L 9.109375 -13.828125 L 9.109375 0 L 5.34375 0 L 5.34375 -13.828125 L 0.546875 -13.828125 L 0.546875 -17.3125 Z M 13.921875 -17.3125 "/></g></g></g><g fill="#000000" fill-opacity="1"><g transform="translate(153.122926, 33.152209)"><g><path d="M 8.5625 -13.4375 L 9.75 -13.4375 L 9.75 -10.015625 L 8.1875 -10.015625 C 7.164062 -10.015625 6.4375 -9.773438 6 -9.296875 C 5.5625 -8.816406 5.34375 -8.035156 5.34375 -6.953125 L 5.34375 0 L 1.734375 0 L 1.734375 -13.359375 L 4.0625 -13.359375 L 4.703125 -11.71875 C 5.609375 -12.863281 6.894531 -13.4375 8.5625 -13.4375 Z M 8.5625 -13.4375 "/></g></g></g><g fill="#000000" fill-opacity="1"><g transform="translate(163.19228, 33.152209)"><g><path d="M 12.640625 -13.375 L 15.328125 -13.375 L 15.328125 -0.03125 L 12.484375 -0.03125 L 12.1875 -1.21875 C 11.613281 -0.71875 10.957031 -0.328125 10.21875 -0.046875 C 9.488281 0.234375 8.703125 0.375 7.859375 0.375 C 6.523438 0.375 5.332031 0.0664062 4.28125 -0.546875 C 3.226562 -1.171875 2.394531 -2.015625 1.78125 -3.078125 C 1.164062 -4.140625 0.859375 -5.347656 0.859375 -6.703125 C 0.859375 -8.035156 1.164062 -9.234375 1.78125 -10.296875 C 2.394531 -11.359375 3.226562 -12.195312 4.28125 -12.8125 C 5.332031 -13.425781 6.523438 -13.734375 7.859375 -13.734375 C 8.722656 -13.734375 9.523438 -13.585938 10.265625 -13.296875 C 11.003906 -13.003906 11.664062 -12.601562 12.25 -12.09375 Z M 8.15625 -3.046875 C 8.851562 -3.046875 9.476562 -3.203125 10.03125 -3.515625 C 10.582031 -3.828125 11.015625 -4.257812 11.328125 -4.8125 C 11.640625 -5.363281 11.796875 -5.992188 11.796875 -6.703125 C 11.796875 -7.390625 11.640625 -8.007812 11.328125 -8.5625 C 11.015625 -9.125 10.582031 -9.5625 10.03125 -9.875 C 9.476562 -10.195312 8.851562 -10.359375 8.15625 -10.359375 C 7.445312 -10.359375 6.820312 -10.195312 6.28125 -9.875 C 5.738281 -9.5625 5.3125 -9.125 5 -8.5625 C 4.6875 -8.007812 4.53125 -7.390625 4.53125 -6.703125 C 4.53125 -5.992188 4.6875 -5.363281 5 -4.8125 C 5.3125 -4.269531 5.738281 -3.835938 6.28125 -3.515625 C 6.820312 -3.203125 7.445312 -3.046875 8.15625 -3.046875 Z M 8.15625 -3.046875 "/></g></g></g><g fill="#000000" fill-opacity="1"><g transform="translate(180.263182, 33.152209)"><g><path d="M 7.9375 0.375 C 6.601562 0.375 5.398438 0.0625 4.328125 -0.5625 C 3.253906 -1.195312 2.40625 -2.046875 1.78125 -3.109375 C 1.164062 -4.179688 0.859375 -5.390625 0.859375 -6.734375 C 0.859375 -8.066406 1.164062 -9.257812 1.78125 -10.3125 C 2.40625 -11.363281 3.253906 -12.195312 4.328125 -12.8125 C 5.398438 -13.425781 6.613281 -13.734375 7.96875 -13.734375 C 9.125 -13.734375 10.175781 -13.503906 11.125 -13.046875 C 12.070312 -12.585938 12.859375 -11.945312 13.484375 -11.125 C 14.117188 -10.300781 14.546875 -9.347656 14.765625 -8.265625 L 11.1875 -8.265625 C 10.882812 -8.921875 10.445312 -9.429688 9.875 -9.796875 C 9.3125 -10.160156 8.664062 -10.34375 7.9375 -10.34375 C 7.289062 -10.34375 6.707031 -10.179688 6.1875 -9.859375 C 5.675781 -9.535156 5.269531 -9.097656 4.96875 -8.546875 C 4.675781 -8.003906 4.53125 -7.390625 4.53125 -6.703125 C 4.53125 -6.015625 4.675781 -5.390625 4.96875 -4.828125 C 5.269531 -4.273438 5.675781 -3.832031 6.1875 -3.5 C 6.707031 -3.175781 7.289062 -3.015625 7.9375 -3.015625 C 8.675781 -3.015625 9.320312 -3.207031 9.875 -3.59375 C 10.425781 -3.988281 10.863281 -4.546875 11.1875 -5.265625 L 14.8125 -5.265625 C 14.601562 -4.148438 14.175781 -3.164062 13.53125 -2.3125 C 12.882812 -1.457031 12.082031 -0.796875 11.125 -0.328125 C 10.175781 0.140625 9.113281 0.375 7.9375 0.375 Z M 7.9375 0.375 "/></g></g></g><g fill="#000000" fill-opacity="1"><g transform="translate(195.725955, 33.152209)"><g><path d="M 14 0 L 9.625 0 L 5.34375 -6.375 L 5.34375 0 L 1.734375 0 L 1.734375 -18.171875 L 5.34375 -18.171875 L 5.34375 -7.421875 L 9.34375 -13.359375 L 13.5 -13.359375 L 9 -7 Z M 14 0 "/></g></g></g></svg>