<svg xmlns="http://www.w3.org/2000/svg" xmlns:xlink="http://www.w3.org/1999/xlink" width="555" zoomAndPan="magnify" viewBox="0 0 416.25 307.500004" height="410" preserveAspectRatio="xMidYMid meet" version="1.0"><defs><g/></defs><path fill="#68de68" d="M 217.761719 41.007812 L 225.589844 33.179688 C 240.96875 17.796875 266.011719 17.417969 281.476562 32.707031 C 293.820312 44.910156 296.390625 63.289062 289.179688 78.0625 C 285.632812 85.332031 287.066406 94.046875 292.789062 99.765625 C 314.34375 78.210938 314.304688 43.121094 292.675781 21.613281 C 271.046875 0.105469 235.9375 0.535156 214.371094 22.101562 L 139.722656 96.753906 L 133.582031 90.613281 C 117.941406 74.972656 117.839844 49.40625 133.761719 34.042969 C 146.085938 22.148438 164.3125 19.875 178.894531 27.226562 C 185.769531 30.691406 194.066406 29.472656 199.507812 24.03125 L 199.695312 23.84375 C 199.941406 23.59375 199.941406 23.191406 199.691406 22.941406 C 178.375 2.109375 144.226562 2.027344 122.8125 22.703125 C 100.542969 44.199219 100.621094 79.953125 122.511719 101.839844 L 197.140625 176.472656 L 189.214844 184.402344 C 173.832031 199.78125 148.792969 200.160156 133.328125 184.871094 C 120.984375 172.667969 118.414062 154.289062 125.625 139.519531 C 129.171875 132.253906 127.738281 123.535156 122.015625 117.816406 C 100.457031 139.359375 100.492188 174.453125 122.117188 195.960938 C 143.746094 217.46875 178.859375 217.039062 200.425781 195.472656 L 275.175781 120.722656 L 281.335938 126.882812 C 296.714844 142.261719 297.09375 167.300781 281.808594 182.765625 C 269.605469 195.109375 251.226562 197.679688 236.453125 190.46875 C 229.183594 186.921875 220.46875 188.355469 214.75 194.078125 C 236.304688 215.632812 271.394531 215.597656 292.898438 193.96875 C 314.410156 172.339844 313.980469 137.226562 292.414062 115.660156 Z M 208.285156 165.316406 L 150.867188 107.902344 L 206.613281 52.160156 L 264.03125 109.574219 Z M 208.285156 165.316406 " fill-opacity="1" fill-rule="nonzero"/><g fill="#004442" fill-opacity="1"><g transform="translate(83.532696, 273.093831)"><g><path d="M 16.859375 0.625 C 14.703125 0.625 12.695312 0.238281 10.84375 -0.53125 C 8.988281 -1.300781 7.375 -2.378906 6 -3.765625 C 4.632812 -5.148438 3.570312 -6.773438 2.8125 -8.640625 C 2.0625 -10.503906 1.6875 -12.515625 1.6875 -14.671875 C 1.6875 -16.859375 2.0625 -18.890625 2.8125 -20.765625 C 3.570312 -22.640625 4.632812 -24.269531 6 -25.65625 C 7.375 -27.039062 8.988281 -28.117188 10.84375 -28.890625 C 12.695312 -29.660156 14.703125 -30.046875 16.859375 -30.046875 C 19.234375 -30.046875 21.414062 -29.554688 23.40625 -28.578125 C 25.394531 -27.597656 27.0625 -26.222656 28.40625 -24.453125 C 29.757812 -22.691406 30.660156 -20.648438 31.109375 -18.328125 L 24.71875 -18.328125 C 24.125 -20.066406 23.125 -21.445312 21.71875 -22.46875 C 20.320312 -23.488281 18.703125 -24 16.859375 -24 C 15.203125 -24 13.710938 -23.582031 12.390625 -22.75 C 11.078125 -21.925781 10.035156 -20.8125 9.265625 -19.40625 C 8.492188 -18.007812 8.109375 -16.429688 8.109375 -14.671875 C 8.109375 -12.898438 8.492188 -11.320312 9.265625 -9.9375 C 10.035156 -8.550781 11.078125 -7.453125 12.390625 -6.640625 C 13.710938 -5.828125 15.203125 -5.421875 16.859375 -5.421875 C 18.785156 -5.421875 20.445312 -5.96875 21.84375 -7.0625 C 23.25 -8.15625 24.21875 -9.640625 24.75 -11.515625 L 31.1875 -11.515625 C 30.738281 -9.078125 29.847656 -6.945312 28.515625 -5.125 C 27.179688 -3.300781 25.515625 -1.882812 23.515625 -0.875 C 21.515625 0.125 19.296875 0.625 16.859375 0.625 Z M 16.859375 0.625 "/></g></g></g><g fill="#004442" fill-opacity="1"><g transform="translate(115.937646, 273.093831)"><g><path d="M 15.9375 -23.25 C 18.507812 -23.25 20.535156 -22.390625 22.015625 -20.671875 C 23.503906 -18.960938 24.25 -16.664062 24.25 -13.78125 L 24.25 0 L 18.109375 0 L 18.109375 -12.78125 C 18.109375 -14.457031 17.800781 -15.722656 17.1875 -16.578125 C 16.570312 -17.429688 15.566406 -17.859375 14.171875 -17.859375 C 12.648438 -17.859375 11.421875 -17.332031 10.484375 -16.28125 C 9.546875 -15.238281 9.078125 -13.789062 9.078125 -11.9375 L 9.078125 0 L 2.9375 0 L 2.9375 -30.890625 L 9.078125 -30.890625 L 9.078125 -20.59375 C 9.941406 -21.40625 10.960938 -22.050781 12.140625 -22.53125 C 13.316406 -23.007812 14.582031 -23.25 15.9375 -23.25 Z M 15.9375 -23.25 "/></g></g></g><g fill="#004442" fill-opacity="1"><g transform="translate(142.87872, 273.093831)"><g><path d="M 21.484375 -22.734375 L 26.0625 -22.734375 L 26.0625 -0.046875 L 21.21875 -0.046875 L 20.71875 -2.0625 C 19.738281 -1.21875 18.625 -0.554688 17.375 -0.078125 C 16.132812 0.390625 14.796875 0.625 13.359375 0.625 C 11.097656 0.625 9.066406 0.101562 7.265625 -0.9375 C 5.472656 -1.988281 4.054688 -3.414062 3.015625 -5.21875 C 1.984375 -7.03125 1.46875 -9.085938 1.46875 -11.390625 C 1.46875 -13.660156 1.984375 -15.695312 3.015625 -17.5 C 4.054688 -19.3125 5.472656 -20.734375 7.265625 -21.765625 C 9.066406 -22.804688 11.097656 -23.328125 13.359375 -23.328125 C 14.816406 -23.328125 16.175781 -23.082031 17.4375 -22.59375 C 18.695312 -22.101562 19.820312 -21.421875 20.8125 -20.546875 Z M 13.875 -5.171875 C 15.050781 -5.171875 16.109375 -5.4375 17.046875 -5.96875 C 17.984375 -6.5 18.71875 -7.234375 19.25 -8.171875 C 19.78125 -9.109375 20.046875 -10.179688 20.046875 -11.390625 C 20.046875 -12.566406 19.78125 -13.625 19.25 -14.5625 C 18.71875 -15.5 17.984375 -16.238281 17.046875 -16.78125 C 16.109375 -17.332031 15.050781 -17.609375 13.875 -17.609375 C 12.664062 -17.609375 11.597656 -17.332031 10.671875 -16.78125 C 9.742188 -16.238281 9.015625 -15.5 8.484375 -14.5625 C 7.953125 -13.625 7.6875 -12.566406 7.6875 -11.390625 C 7.6875 -10.179688 7.953125 -9.113281 8.484375 -8.1875 C 9.015625 -7.269531 9.742188 -6.535156 10.671875 -5.984375 C 11.597656 -5.441406 12.664062 -5.171875 13.875 -5.171875 Z M 13.875 -5.171875 "/></g></g></g><g fill="#004442" fill-opacity="1"><g transform="translate(171.87926, 273.093831)"><g><path d="M 2.9375 -25.71875 L 2.9375 -31.4375 L 9.078125 -31.4375 L 9.078125 -25.71875 Z M 2.9375 0 L 2.9375 -22.703125 L 9.078125 -22.703125 L 9.078125 0 Z M 2.9375 0 "/></g></g></g><g fill="#004442" fill-opacity="1"><g transform="translate(183.899772, 273.093831)"><g><path d="M 15.890625 -23.25 C 18.460938 -23.25 20.5 -22.382812 22 -20.65625 C 23.5 -18.9375 24.25 -16.632812 24.25 -13.75 L 24.25 0 L 18.109375 0 L 18.109375 -12.78125 C 18.109375 -16.164062 16.796875 -17.859375 14.171875 -17.859375 C 12.597656 -17.859375 11.351562 -17.328125 10.4375 -16.265625 C 9.53125 -15.203125 9.078125 -13.757812 9.078125 -11.9375 L 9.078125 0 L 2.9375 0 L 2.9375 -22.703125 L 7.140625 -22.703125 L 8.359375 -19.875 C 9.203125 -20.914062 10.28125 -21.738281 11.59375 -22.34375 C 12.914062 -22.945312 14.347656 -23.25 15.890625 -23.25 Z M 15.890625 -23.25 "/></g></g></g><g fill="#004442" fill-opacity="1"><g transform="translate(210.840846, 273.093831)"><g><path d="M 23.65625 -29.421875 L 23.65625 -23.5 L 15.46875 -23.5 L 15.46875 0 L 9.078125 0 L 9.078125 -23.5 L 0.921875 -23.5 L 0.921875 -29.421875 Z M 23.65625 -29.421875 "/></g></g></g><g fill="#004442" fill-opacity="1"><g transform="translate(235.386229, 273.093831)"><g><path d="M 14.546875 -22.828125 L 16.5625 -22.828125 L 16.5625 -17.015625 L 13.90625 -17.015625 C 12.175781 -17.015625 10.9375 -16.609375 10.1875 -15.796875 C 9.445312 -14.984375 9.078125 -13.65625 9.078125 -11.8125 L 9.078125 0 L 2.9375 0 L 2.9375 -22.703125 L 6.890625 -22.703125 L 7.984375 -19.921875 C 9.523438 -21.859375 11.710938 -22.828125 14.546875 -22.828125 Z M 14.546875 -22.828125 "/></g></g></g><g fill="#004442" fill-opacity="1"><g transform="translate(252.492337, 273.093831)"><g><path d="M 21.484375 -22.734375 L 26.0625 -22.734375 L 26.0625 -0.046875 L 21.21875 -0.046875 L 20.71875 -2.0625 C 19.738281 -1.21875 18.625 -0.554688 17.375 -0.078125 C 16.132812 0.390625 14.796875 0.625 13.359375 0.625 C 11.097656 0.625 9.066406 0.101562 7.265625 -0.9375 C 5.472656 -1.988281 4.054688 -3.414062 3.015625 -5.21875 C 1.984375 -7.03125 1.46875 -9.085938 1.46875 -11.390625 C 1.46875 -13.660156 1.984375 -15.695312 3.015625 -17.5 C 4.054688 -19.3125 5.472656 -20.734375 7.265625 -21.765625 C 9.066406 -22.804688 11.097656 -23.328125 13.359375 -23.328125 C 14.816406 -23.328125 16.175781 -23.082031 17.4375 -22.59375 C 18.695312 -22.101562 19.820312 -21.421875 20.8125 -20.546875 Z M 13.875 -5.171875 C 15.050781 -5.171875 16.109375 -5.4375 17.046875 -5.96875 C 17.984375 -6.5 18.71875 -7.234375 19.25 -8.171875 C 19.78125 -9.109375 20.046875 -10.179688 20.046875 -11.390625 C 20.046875 -12.566406 19.78125 -13.625 19.25 -14.5625 C 18.71875 -15.5 17.984375 -16.238281 17.046875 -16.78125 C 16.109375 -17.332031 15.050781 -17.609375 13.875 -17.609375 C 12.664062 -17.609375 11.597656 -17.332031 10.671875 -16.78125 C 9.742188 -16.238281 9.015625 -15.5 8.484375 -14.5625 C 7.953125 -13.625 7.6875 -12.566406 7.6875 -11.390625 C 7.6875 -10.179688 7.953125 -9.113281 8.484375 -8.1875 C 9.015625 -7.269531 9.742188 -6.535156 10.671875 -5.984375 C 11.597656 -5.441406 12.664062 -5.171875 13.875 -5.171875 Z M 13.875 -5.171875 "/></g></g></g><g fill="#004442" fill-opacity="1"><g transform="translate(281.492877, 273.093831)"><g><path d="M 13.484375 0.625 C 11.222656 0.625 9.179688 0.09375 7.359375 -0.96875 C 5.535156 -2.03125 4.097656 -3.472656 3.046875 -5.296875 C 1.992188 -7.117188 1.46875 -9.164062 1.46875 -11.4375 C 1.46875 -13.707031 1.992188 -15.738281 3.046875 -17.53125 C 4.097656 -19.320312 5.535156 -20.734375 7.359375 -21.765625 C 9.179688 -22.804688 11.238281 -23.328125 13.53125 -23.328125 C 15.488281 -23.328125 17.273438 -22.941406 18.890625 -22.171875 C 20.503906 -21.398438 21.847656 -20.3125 22.921875 -18.90625 C 24.003906 -17.507812 24.726562 -15.882812 25.09375 -14.03125 L 19 -14.03125 C 18.488281 -15.15625 17.75 -16.023438 16.78125 -16.640625 C 15.820312 -17.253906 14.722656 -17.5625 13.484375 -17.5625 C 12.398438 -17.5625 11.414062 -17.289062 10.53125 -16.75 C 9.644531 -16.207031 8.945312 -15.472656 8.4375 -14.546875 C 7.9375 -13.617188 7.6875 -12.566406 7.6875 -11.390625 C 7.6875 -10.210938 7.9375 -9.15625 8.4375 -8.21875 C 8.945312 -7.28125 9.644531 -6.53125 10.53125 -5.96875 C 11.414062 -5.40625 12.398438 -5.125 13.484375 -5.125 C 14.753906 -5.125 15.859375 -5.453125 16.796875 -6.109375 C 17.734375 -6.773438 18.46875 -7.722656 19 -8.953125 L 25.171875 -8.953125 C 24.804688 -7.046875 24.078125 -5.367188 22.984375 -3.921875 C 21.898438 -2.484375 20.539062 -1.363281 18.90625 -0.5625 C 17.28125 0.226562 15.472656 0.625 13.484375 0.625 Z M 13.484375 0.625 "/></g></g></g><g fill="#004442" fill-opacity="1"><g transform="translate(307.761484, 273.093831)"><g><path d="M 23.796875 0 L 16.34375 0 L 9.078125 -10.84375 L 9.078125 0 L 2.9375 0 L 2.9375 -30.890625 L 9.078125 -30.890625 L 9.078125 -12.609375 L 15.890625 -22.703125 L 22.953125 -22.703125 L 15.296875 -11.890625 Z M 23.796875 0 "/></g></g></g></svg>