<svg xmlns="http://www.w3.org/2000/svg" xmlns:xlink="http://www.w3.org/1999/xlink" width="423" zoomAndPan="magnify" viewBox="0 0 317.25 79.499998" height="106" preserveAspectRatio="xMidYMid meet" version="1.0"><defs><g/></defs><path fill="#68de68" d="M 43.058594 14.828125 L 45.890625 11.996094 C 51.457031 6.429688 60.519531 6.292969 66.113281 11.828125 C 70.582031 16.242188 71.511719 22.890625 68.902344 28.238281 C 67.617188 30.867188 68.136719 34.023438 70.207031 36.09375 C 78.007812 28.292969 77.996094 15.59375 70.167969 7.8125 C 62.339844 0.0273438 49.636719 0.183594 41.832031 7.988281 L 14.820312 35.003906 L 12.597656 32.78125 C 6.9375 27.121094 6.902344 17.871094 12.660156 12.308594 C 17.121094 8.003906 23.71875 7.183594 28.996094 9.84375 C 31.480469 11.097656 34.484375 10.65625 36.453125 8.6875 L 36.519531 8.617188 C 36.609375 8.527344 36.609375 8.382812 36.519531 8.292969 C 28.804688 0.753906 16.449219 0.722656 8.699219 8.207031 C 0.640625 15.984375 0.667969 28.921875 8.589844 36.84375 L 35.597656 63.851562 L 32.726562 66.71875 C 27.164062 72.285156 18.101562 72.421875 12.503906 66.890625 C 8.039062 62.472656 7.109375 55.824219 9.71875 50.480469 C 11 47.847656 10.480469 44.695312 8.410156 42.625 C 0.609375 50.421875 0.625 63.121094 8.449219 70.902344 C 16.277344 78.683594 28.980469 78.53125 36.785156 70.726562 L 63.835938 43.675781 L 66.0625 45.90625 C 71.628906 51.46875 71.765625 60.53125 66.234375 66.128906 C 61.820312 70.59375 55.167969 71.523438 49.824219 68.914062 C 47.191406 67.632812 44.039062 68.152344 41.96875 70.222656 C 49.769531 78.019531 62.464844 78.007812 70.25 70.179688 C 78.03125 62.355469 77.878906 49.648438 70.074219 41.84375 Z M 39.628906 59.8125 L 18.851562 39.035156 L 39.023438 18.863281 L 59.800781 39.640625 Z M 39.628906 59.8125 " fill-opacity="1" fill-rule="nonzero"/><g fill="#004442" fill-opacity="1"><g transform="translate(89.32844, 48.310801)"><g><path d="M 14.125 0.53125 C 12.3125 0.53125 10.628906 0.207031 9.078125 -0.4375 C 7.535156 -1.082031 6.1875 -1.984375 5.03125 -3.140625 C 3.882812 -4.304688 2.992188 -5.671875 2.359375 -7.234375 C 1.722656 -8.796875 1.40625 -10.484375 1.40625 -12.296875 C 1.40625 -14.117188 1.722656 -15.816406 2.359375 -17.390625 C 2.992188 -18.960938 3.882812 -20.332031 5.03125 -21.5 C 6.1875 -22.664062 7.535156 -23.570312 9.078125 -24.21875 C 10.628906 -24.863281 12.3125 -25.1875 14.125 -25.1875 C 16.113281 -25.1875 17.941406 -24.773438 19.609375 -23.953125 C 21.285156 -23.128906 22.6875 -21.976562 23.8125 -20.5 C 24.9375 -19.019531 25.6875 -17.304688 26.0625 -15.359375 L 20.703125 -15.359375 C 20.210938 -16.804688 19.378906 -17.957031 18.203125 -18.8125 C 17.035156 -19.675781 15.675781 -20.109375 14.125 -20.109375 C 12.738281 -20.109375 11.492188 -19.757812 10.390625 -19.0625 C 9.285156 -18.375 8.410156 -17.441406 7.765625 -16.265625 C 7.117188 -15.097656 6.796875 -13.773438 6.796875 -12.296875 C 6.796875 -10.816406 7.117188 -9.492188 7.765625 -8.328125 C 8.410156 -7.160156 9.285156 -6.238281 10.390625 -5.5625 C 11.492188 -4.882812 12.738281 -4.546875 14.125 -4.546875 C 15.738281 -4.546875 17.132812 -5.003906 18.3125 -5.921875 C 19.488281 -6.835938 20.300781 -8.082031 20.75 -9.65625 L 26.125 -9.65625 C 25.75 -7.601562 25.003906 -5.8125 23.890625 -4.28125 C 22.773438 -2.757812 21.378906 -1.578125 19.703125 -0.734375 C 18.023438 0.109375 16.164062 0.53125 14.125 0.53125 Z M 14.125 0.53125 "/></g></g></g><g fill="#004442" fill-opacity="1"><g transform="translate(116.476176, 48.310801)"><g><path d="M 13.34375 -19.46875 C 15.507812 -19.46875 17.210938 -18.75 18.453125 -17.3125 C 19.703125 -15.882812 20.328125 -13.960938 20.328125 -11.546875 L 20.328125 0 L 15.171875 0 L 15.171875 -10.703125 C 15.171875 -12.109375 14.910156 -13.171875 14.390625 -13.890625 C 13.878906 -14.609375 13.039062 -14.96875 11.875 -14.96875 C 10.601562 -14.96875 9.570312 -14.523438 8.78125 -13.640625 C 8 -12.765625 7.609375 -11.550781 7.609375 -10 L 7.609375 0 L 2.46875 0 L 2.46875 -25.890625 L 7.609375 -25.890625 L 7.609375 -17.25 C 8.335938 -17.9375 9.191406 -18.476562 10.171875 -18.875 C 11.160156 -19.269531 12.21875 -19.46875 13.34375 -19.46875 Z M 13.34375 -19.46875 "/></g></g></g><g fill="#004442" fill-opacity="1"><g transform="translate(139.046468, 48.310801)"><g><path d="M 18 -19.046875 L 21.828125 -19.046875 L 21.828125 -0.03125 L 17.78125 -0.03125 L 17.359375 -1.71875 C 16.535156 -1.019531 15.601562 -0.46875 14.5625 -0.0625 C 13.519531 0.332031 12.398438 0.53125 11.203125 0.53125 C 9.296875 0.53125 7.59375 0.09375 6.09375 -0.78125 C 4.59375 -1.664062 3.40625 -2.863281 2.53125 -4.375 C 1.664062 -5.894531 1.234375 -7.617188 1.234375 -9.546875 C 1.234375 -11.441406 1.664062 -13.144531 2.53125 -14.65625 C 3.40625 -16.175781 4.59375 -17.367188 6.09375 -18.234375 C 7.59375 -19.109375 9.296875 -19.546875 11.203125 -19.546875 C 12.421875 -19.546875 13.554688 -19.335938 14.609375 -18.921875 C 15.671875 -18.515625 16.613281 -17.945312 17.4375 -17.21875 Z M 11.625 -4.328125 C 12.601562 -4.328125 13.488281 -4.550781 14.28125 -5 C 15.070312 -5.445312 15.6875 -6.0625 16.125 -6.84375 C 16.570312 -7.632812 16.796875 -8.535156 16.796875 -9.546875 C 16.796875 -10.535156 16.570312 -11.421875 16.125 -12.203125 C 15.6875 -12.992188 15.070312 -13.613281 14.28125 -14.0625 C 13.488281 -14.519531 12.601562 -14.75 11.625 -14.75 C 10.613281 -14.75 9.71875 -14.519531 8.9375 -14.0625 C 8.164062 -13.613281 7.554688 -12.992188 7.109375 -12.203125 C 6.660156 -11.421875 6.4375 -10.535156 6.4375 -9.546875 C 6.4375 -8.535156 6.660156 -7.640625 7.109375 -6.859375 C 7.554688 -6.085938 8.164062 -5.472656 8.9375 -5.015625 C 9.71875 -4.554688 10.613281 -4.328125 11.625 -4.328125 Z M 11.625 -4.328125 "/></g></g></g><g fill="#004442" fill-opacity="1"><g transform="translate(163.342104, 48.310801)"><g><path d="M 2.46875 -21.546875 L 2.46875 -26.34375 L 7.609375 -26.34375 L 7.609375 -21.546875 Z M 2.46875 0 L 2.46875 -19.015625 L 7.609375 -19.015625 L 7.609375 0 Z M 2.46875 0 "/></g></g></g><g fill="#004442" fill-opacity="1"><g transform="translate(173.412466, 48.310801)"><g><path d="M 13.3125 -19.46875 C 15.46875 -19.46875 17.175781 -18.742188 18.4375 -17.296875 C 19.695312 -15.859375 20.328125 -13.929688 20.328125 -11.515625 L 20.328125 0 L 15.171875 0 L 15.171875 -10.703125 C 15.171875 -13.546875 14.070312 -14.96875 11.875 -14.96875 C 10.550781 -14.96875 9.507812 -14.519531 8.75 -13.625 C 7.988281 -12.738281 7.609375 -11.53125 7.609375 -10 L 7.609375 0 L 2.46875 0 L 2.46875 -19.015625 L 5.984375 -19.015625 L 7.015625 -16.65625 C 7.710938 -17.53125 8.613281 -18.21875 9.71875 -18.71875 C 10.820312 -19.21875 12.019531 -19.46875 13.3125 -19.46875 Z M 13.3125 -19.46875 "/></g></g></g><g fill="#004442" fill-opacity="1"><g transform="translate(195.982758, 48.310801)"><g><path d="M 19.828125 -24.65625 L 19.828125 -19.6875 L 12.953125 -19.6875 L 12.953125 0 L 7.609375 0 L 7.609375 -19.6875 L 0.78125 -19.6875 L 0.78125 -24.65625 Z M 19.828125 -24.65625 "/></g></g></g><g fill="#004442" fill-opacity="1"><g transform="translate(216.546028, 48.310801)"><g><path d="M 12.1875 -19.125 L 13.875 -19.125 L 13.875 -14.265625 L 11.65625 -14.265625 C 10.195312 -14.265625 9.15625 -13.921875 8.53125 -13.234375 C 7.914062 -12.554688 7.609375 -11.441406 7.609375 -9.890625 L 7.609375 0 L 2.46875 0 L 2.46875 -19.015625 L 5.78125 -19.015625 L 6.6875 -16.6875 C 7.976562 -18.3125 9.8125 -19.125 12.1875 -19.125 Z M 12.1875 -19.125 "/></g></g></g><g fill="#004442" fill-opacity="1"><g transform="translate(230.876937, 48.310801)"><g><path d="M 18 -19.046875 L 21.828125 -19.046875 L 21.828125 -0.03125 L 17.78125 -0.03125 L 17.359375 -1.71875 C 16.535156 -1.019531 15.601562 -0.46875 14.5625 -0.0625 C 13.519531 0.332031 12.398438 0.53125 11.203125 0.53125 C 9.296875 0.53125 7.59375 0.09375 6.09375 -0.78125 C 4.59375 -1.664062 3.40625 -2.863281 2.53125 -4.375 C 1.664062 -5.894531 1.234375 -7.617188 1.234375 -9.546875 C 1.234375 -11.441406 1.664062 -13.144531 2.53125 -14.65625 C 3.40625 -16.175781 4.59375 -17.367188 6.09375 -18.234375 C 7.59375 -19.109375 9.296875 -19.546875 11.203125 -19.546875 C 12.421875 -19.546875 13.554688 -19.335938 14.609375 -18.921875 C 15.671875 -18.515625 16.613281 -17.945312 17.4375 -17.21875 Z M 11.625 -4.328125 C 12.601562 -4.328125 13.488281 -4.550781 14.28125 -5 C 15.070312 -5.445312 15.6875 -6.0625 16.125 -6.84375 C 16.570312 -7.632812 16.796875 -8.535156 16.796875 -9.546875 C 16.796875 -10.535156 16.570312 -11.421875 16.125 -12.203125 C 15.6875 -12.992188 15.070312 -13.613281 14.28125 -14.0625 C 13.488281 -14.519531 12.601562 -14.75 11.625 -14.75 C 10.613281 -14.75 9.71875 -14.519531 8.9375 -14.0625 C 8.164062 -13.613281 7.554688 -12.992188 7.109375 -12.203125 C 6.660156 -11.421875 6.4375 -10.535156 6.4375 -9.546875 C 6.4375 -8.535156 6.660156 -7.640625 7.109375 -6.859375 C 7.554688 -6.085938 8.164062 -5.472656 8.9375 -5.015625 C 9.71875 -4.554688 10.613281 -4.328125 11.625 -4.328125 Z M 11.625 -4.328125 "/></g></g></g><g fill="#004442" fill-opacity="1"><g transform="translate(255.172573, 48.310801)"><g><path d="M 11.3125 0.53125 C 9.40625 0.53125 7.6875 0.0859375 6.15625 -0.796875 C 4.632812 -1.691406 3.429688 -2.90625 2.546875 -4.4375 C 1.671875 -5.96875 1.234375 -7.679688 1.234375 -9.578125 C 1.234375 -11.484375 1.671875 -13.1875 2.546875 -14.6875 C 3.429688 -16.1875 4.632812 -17.367188 6.15625 -18.234375 C 7.6875 -19.109375 9.414062 -19.546875 11.34375 -19.546875 C 12.988281 -19.546875 14.484375 -19.222656 15.828125 -18.578125 C 17.179688 -17.929688 18.304688 -17.019531 19.203125 -15.84375 C 20.109375 -14.675781 20.71875 -13.316406 21.03125 -11.765625 L 15.921875 -11.765625 C 15.492188 -12.703125 14.875 -13.425781 14.0625 -13.9375 C 13.257812 -14.457031 12.34375 -14.71875 11.3125 -14.71875 C 10.394531 -14.71875 9.566406 -14.488281 8.828125 -14.03125 C 8.085938 -13.570312 7.503906 -12.957031 7.078125 -12.1875 C 6.648438 -11.414062 6.4375 -10.535156 6.4375 -9.546875 C 6.4375 -8.554688 6.648438 -7.664062 7.078125 -6.875 C 7.503906 -6.09375 8.085938 -5.46875 8.828125 -5 C 9.566406 -4.53125 10.394531 -4.296875 11.3125 -4.296875 C 12.363281 -4.296875 13.28125 -4.570312 14.0625 -5.125 C 14.851562 -5.675781 15.472656 -6.46875 15.921875 -7.5 L 21.09375 -7.5 C 20.789062 -5.90625 20.179688 -4.503906 19.265625 -3.296875 C 18.347656 -2.085938 17.207031 -1.144531 15.84375 -0.46875 C 14.488281 0.195312 12.976562 0.53125 11.3125 0.53125 Z M 11.3125 0.53125 "/></g></g></g><g fill="#004442" fill-opacity="1"><g transform="translate(277.179496, 48.310801)"><g><path d="M 19.9375 0 L 13.703125 0 L 7.609375 -9.09375 L 7.609375 0 L 2.46875 0 L 2.46875 -25.890625 L 7.609375 -25.890625 L 7.609375 -10.5625 L 13.3125 -19.015625 L 19.234375 -19.015625 L 12.8125 -9.96875 Z M 19.9375 0 "/></g></g></g></svg>